<?xml version="1.0" encoding="UTF-8" standalone="no"?>
<svg
   xmlns:dc="http://purl.org/dc/elements/1.1/"
   xmlns:cc="http://creativecommons.org/ns#"
   xmlns:rdf="http://www.w3.org/1999/02/22-rdf-syntax-ns#"
   xmlns:svg="http://www.w3.org/2000/svg"
   xmlns="http://www.w3.org/2000/svg"
   xmlns:sodipodi="http://sodipodi.sourceforge.net/DTD/sodipodi-0.dtd"
   xmlns:inkscape="http://www.inkscape.org/namespaces/inkscape"
   width="16"
   height="16"
   viewBox="0 0 16 16"
   fill="none"
   version="1.1"
   id="svg4189"
   sodipodi:docname="tm_focus_style.svg"
   inkscape:version="1.0.2 (e86c8708, 2021-01-15)">
  <metadata
     id="metadata4195">
    <rdf:RDF>
      <cc:Work
         rdf:about="">
        <dc:format>image/svg+xml</dc:format>
        <dc:type
           rdf:resource="http://purl.org/dc/dcmitype/StillImage" />
        <dc:title></dc:title>
      </cc:Work>
    </rdf:RDF>
  </metadata>
  <defs
     id="defs4193" />
  <sodipodi:namedview
     pagecolor="#ffffff"
     bordercolor="#666666"
     borderopacity="1"
     objecttolerance="10"
     gridtolerance="10"
     guidetolerance="10"
     inkscape:pageopacity="0"
     inkscape:pageshadow="2"
     inkscape:window-width="1234"
     inkscape:window-height="781"
     id="namedview4191"
     showgrid="true"
     inkscape:snap-global="false"
     inkscape:zoom="13.9375"
     inkscape:cx="12"
     inkscape:cy="12"
     inkscape:window-x="0"
     inkscape:window-y="23"
     inkscape:window-maximized="0"
     inkscape:current-layer="svg4189">
    <inkscape:grid
       type="xygrid"
       id="grid4758" />
  </sodipodi:namedview>
  <g
     id="g4762"
     transform="matrix(0.65718579,0,0,0.65718579,0.1136358,0.11377052)">
    <path
       d="m 14.9998,12 c 0,1.6569 -1.3432,3 -3,3 -1.6569,0 -3.00004,-1.3431 -3.00004,-3 0,-1.6569 1.34314,-3 3.00004,-3 1.6568,0 3,1.3431 3,3 z"
       stroke="#4a5568"
       stroke-width="2"
       stroke-linecap="round"
       stroke-linejoin="round"
       id="path4185" />
    <path
       d="M 2.45801,12 C 3.73228,7.94288 7.52257,5 12.0002,5 c 4.4776,0 8.2679,2.94291 9.5422,7 -1.2743,4.0571 -5.0646,7 -9.5422,7 -4.47764,0 -8.26794,-2.9429 -9.54219,-7 z"
       stroke="#4a5568"
       stroke-width="2"
       stroke-linecap="round"
       stroke-linejoin="round"
       id="path4187" />
  </g>
</svg>
