<?xml version="1.0" encoding="UTF-8" standalone="no"?>
<svg
   xmlns:dc="http://purl.org/dc/elements/1.1/"
   xmlns:cc="http://creativecommons.org/ns#"
   xmlns:rdf="http://www.w3.org/1999/02/22-rdf-syntax-ns#"
   xmlns:svg="http://www.w3.org/2000/svg"
   xmlns="http://www.w3.org/2000/svg"
   xmlns:sodipodi="http://sodipodi.sourceforge.net/DTD/sodipodi-0.dtd"
   xmlns:inkscape="http://www.inkscape.org/namespaces/inkscape"
   width="16"
   height="16"
   viewBox="0 0 16 16"
   fill="none"
   version="1.1"
   id="svg847"
   sodipodi:docname="tm_go.svg"
   inkscape:version="1.0.2 (e86c8708, 2021-01-15)">
  <metadata
     id="metadata853">
    <rdf:RDF>
      <cc:Work
         rdf:about="">
        <dc:format>image/svg+xml</dc:format>
        <dc:type
           rdf:resource="http://purl.org/dc/dcmitype/StillImage" />
        <dc:title></dc:title>
      </cc:Work>
    </rdf:RDF>
  </metadata>
  <defs
     id="defs851" />
  <sodipodi:namedview
     pagecolor="#ffffff"
     bordercolor="#666666"
     borderopacity="1"
     objecttolerance="10"
     gridtolerance="10"
     guidetolerance="10"
     inkscape:pageopacity="0"
     inkscape:pageshadow="2"
     inkscape:window-width="1145"
     inkscape:window-height="848"
     id="namedview849"
     showgrid="true"
     inkscape:zoom="23.652722"
     inkscape:cx="10"
     inkscape:cy="10"
     inkscape:window-x="0"
     inkscape:window-y="23"
     inkscape:window-maximized="0"
     inkscape:current-layer="svg847">
    <inkscape:grid
       type="xygrid"
       id="grid1416"
       empspacing="4" />
  </sodipodi:namedview>
  <path
     fill-rule="evenodd"
     clip-rule="evenodd"
     d="m 8,15 c 3.866013,0 7,-3.133987 7,-7 C 15,4.134005 11.866013,1 8,1 4.134005,1 1,4.134005 1,8 c 0,3.866013 3.134005,7 7,7 z M 7.6103625,5.5219562 C 7.34186,5.3429575 6.9966375,5.3262713 6.7121225,5.4785387 6.4276075,5.6308062 6.25,5.9273088 6.25,6.25 v 3.5 c 0,0.3227 0.1776075,0.619238 0.4621225,0.771488 0.284515,0.15225 0.6297375,0.135537 0.89824,-0.0434 L 10.235363,8.7280875 C 10.478788,8.565775 10.625,8.2926 10.625,8 c 0,-0.2925563 -0.146212,-0.5657575 -0.389637,-0.7280437 z"
     fill="#4b5563"
     id="path845"
     style="fill:#4b5563;fill-opacity:1;stroke:none;stroke-width:0.875;stroke-opacity:1" />
</svg>
