<?xml version="1.0" encoding="UTF-8" standalone="no"?>
<svg
   xmlns:dc="http://purl.org/dc/elements/1.1/"
   xmlns:cc="http://creativecommons.org/ns#"
   xmlns:rdf="http://www.w3.org/1999/02/22-rdf-syntax-ns#"
   xmlns:svg="http://www.w3.org/2000/svg"
   xmlns="http://www.w3.org/2000/svg"
   xmlns:sodipodi="http://sodipodi.sourceforge.net/DTD/sodipodi-0.dtd"
   xmlns:inkscape="http://www.inkscape.org/namespaces/inkscape"
   width="16"
   height="16"
   viewBox="0 0 16 16"
   fill="none"
   version="1.1"
   id="svg1895"
   sodipodi:docname="tm_like.svg"
   inkscape:version="1.0.2 (e86c8708, 2021-01-15)">
  <metadata
     id="metadata1901">
    <rdf:RDF>
      <cc:Work
         rdf:about="">
        <dc:format>image/svg+xml</dc:format>
        <dc:type
           rdf:resource="http://purl.org/dc/dcmitype/StillImage" />
        <dc:title></dc:title>
      </cc:Work>
    </rdf:RDF>
  </metadata>
  <defs
     id="defs1899" />
  <sodipodi:namedview
     pagecolor="#ffffff"
     bordercolor="#666666"
     borderopacity="1"
     objecttolerance="10"
     gridtolerance="10"
     guidetolerance="10"
     inkscape:pageopacity="0"
     inkscape:pageshadow="2"
     inkscape:window-width="1165"
     inkscape:window-height="805"
     id="namedview1897"
     showgrid="true"
     inkscape:snap-global="false"
     inkscape:zoom="9.8553008"
     inkscape:cx="12"
     inkscape:cy="12"
     inkscape:window-x="0"
     inkscape:window-y="23"
     inkscape:window-maximized="0"
     inkscape:current-layer="svg1895">
    <inkscape:grid
       type="xygrid"
       id="grid2464" />
  </sodipodi:namedview>
  <path
     d="m 9.3037883,6.7701958 h 2.9260067 c 0.913633,0 1.512597,0.9620764 1.099359,1.7797729 l -2.144911,4.3043163 c -0.208168,0.416658 -0.633678,0.679837 -1.099236,0.679837 H 7.6177393 c -0.1004261,0 -0.200605,-0.01236 -0.2980559,-0.03671 L 5.013594,12.919219 M 9.3158147,6.7701958 V 3.6956833 C 9.3037883,3.0164805 8.7535503,2.4658784 8.0747418,2.4658784 h -0.058645 c -0.3069827,0 -0.5558171,0.2490171 -0.5558171,0.5561976 0,0.4392249 -0.1299346,0.8686236 -0.3734378,1.2340846 L 5.0039233,7.3850975 V 12.919219 M 9.3061439,6.7701958 H 8.0770975 M 5.0023115,12.919219 H 3.773265 c -0.6786846,0 -1.2289224,-0.550583 -1.2289224,-1.229805 V 8.0000001 c 0,-0.6792206 0.5502378,-1.2298043 1.2289224,-1.2298043 h 1.5373929"
     stroke="#374151"
     stroke-width="1.2294"
     stroke-linecap="round"
     stroke-linejoin="round"
     id="path1893" />
</svg>
