<?xml version="1.0" encoding="UTF-8" standalone="no"?>
<svg
   xmlns:dc="http://purl.org/dc/elements/1.1/"
   xmlns:cc="http://creativecommons.org/ns#"
   xmlns:rdf="http://www.w3.org/1999/02/22-rdf-syntax-ns#"
   xmlns:svg="http://www.w3.org/2000/svg"
   xmlns="http://www.w3.org/2000/svg"
   xmlns:sodipodi="http://sodipodi.sourceforge.net/DTD/sodipodi-0.dtd"
   xmlns:inkscape="http://www.inkscape.org/namespaces/inkscape"
   width="24"
   height="24"
   viewBox="0 0 24 24"
   fill="none"
   version="1.1"
   id="svg1416"
   sodipodi:docname="tm_cloud_file.svg"
   inkscape:version="1.0.2 (e86c8708, 2021-01-15)">
  <metadata
     id="metadata1422">
    <rdf:RDF>
      <cc:Work
         rdf:about="">
        <dc:format>image/svg+xml</dc:format>
        <dc:type
           rdf:resource="http://purl.org/dc/dcmitype/StillImage" />
      </cc:Work>
    </rdf:RDF>
  </metadata>
  <defs
     id="defs1420" />
  <sodipodi:namedview
     pagecolor="#ffffff"
     bordercolor="#666666"
     borderopacity="1"
     objecttolerance="10"
     gridtolerance="10"
     guidetolerance="10"
     inkscape:pageopacity="0"
     inkscape:pageshadow="2"
     inkscape:window-width="1238"
     inkscape:window-height="812"
     id="namedview1418"
     showgrid="false"
     inkscape:zoom="13.9375"
     inkscape:cx="12"
     inkscape:cy="12"
     inkscape:window-x="0"
     inkscape:window-y="23"
     inkscape:window-maximized="0"
     inkscape:current-layer="svg1416" />
  <g
     id="g3191"
     transform="translate(-0.0112033)">
    <path
       d="M 9.179372,10.90583 V 4.1569506 c 0,-0.9064408 0.7348151,-1.6412556 1.641256,-1.6412556 h 4.583863 c 0.217631,0 0.426398,0.086461 0.580266,0.2403537 l 4.443042,4.4430594 c 0.153868,0.1538924 0.240363,0.3626273 0.240363,0.580266 v 7.8663669 c 0,0.906465 -0.734791,1.641255 -1.641256,1.641255 h -2.955157"
       stroke="#4a5568"
       stroke-width="1.64126"
       stroke-linecap="round"
       stroke-linejoin="round"
       id="path843"
       sodipodi:nodetypes="csssccsssc"
       style="stroke-width:2;stroke-miterlimit:4;stroke-dasharray:none" />
    <path
       d="m 3.3542614,17.964126 c 0,1.565192 1.2688607,2.834079 2.8340814,2.834079 h 6.3766822 c 1.956507,0 3.5426,-1.586092 3.5426,-3.5426 0,-1.956508 -1.586093,-3.542601 -3.5426,-3.542601 -0.02367,0 -0.04718,2.33e-4 -0.07072,6.95e-4 -0.327974,-1.617361 -1.757768,-2.834776 -3.4718909,-2.834776 -1.9565216,0 -3.5426012,1.586078 -3.5426012,3.542602 0,0.26697 0.029537,0.527068 0.085518,0.777246 -1.2655159,0.283833 -2.2110863,1.414135 -2.2110863,2.765355 z"
       stroke="#374151"
       stroke-width="1.41704"
       stroke-linecap="round"
       stroke-linejoin="round"
       id="path1414"
       style="opacity:1;mix-blend-mode:luminosity;fill:none;fill-opacity:1;stroke:#4a5568;stroke-width:2;stroke-miterlimit:4;stroke-dasharray:none;stroke-opacity:1" />
  </g>
  <path
     d="m 42.029156,6.7780284 h -8.206279 c -0.90644,0 -1.641255,-0.73479 -1.641255,-1.641255 V -6.3520173 c 0,-0.9064408 0.734815,-1.6412556 1.641255,-1.6412556 h 4.583864 c 0.217631,0 0.426397,0.086461 0.580265,0.2403537 l 4.443043,4.4430596 c 0.153867,0.153892 0.240362,0.362627 0.240362,0.580266 v 7.866367 c 0,0.906465 -0.734791,1.641255 -1.641255,1.641255 z"
     stroke="#4a5568"
     stroke-width="1.64126"
     stroke-linecap="round"
     stroke-linejoin="round"
     id="path843-0"
     sodipodi:nodetypes="ssssssccsss"
     style="stroke-width:2;stroke-miterlimit:4;stroke-dasharray:none" />
  <path
     d="m 26.356511,7.4551584 c 0,1.565192 1.268861,2.8340786 2.834081,2.8340786 h 6.376682 c 1.956508,0 3.5426,-1.5860916 3.5426,-3.5425996 0,-1.956508 -1.586093,-3.542601 -3.5426,-3.542601 -0.02367,0 -0.04718,2.33e-4 -0.07072,6.95e-4 -0.327974,-1.617361 -1.757768,-2.834776 -3.47189,-2.834776 -1.956522,0 -3.542602,1.586078 -3.542602,3.542602 0,0.26697 0.02954,0.527068 0.08552,0.777246 -1.265515,0.283833 -2.211086,1.414135 -2.211086,2.765355 z"
     stroke="#374151"
     stroke-width="1.41704"
     stroke-linecap="round"
     stroke-linejoin="round"
     id="path1414-3"
     style="mix-blend-mode:luminosity;fill:#ffffff;fill-opacity:1;stroke:#4a5568;stroke-width:2;stroke-miterlimit:4;stroke-dasharray:none;stroke-opacity:1" />
</svg>
