<?xml version="1.0" encoding="UTF-8" standalone="no"?>
<svg
   xmlns:dc="http://purl.org/dc/elements/1.1/"
   xmlns:cc="http://creativecommons.org/ns#"
   xmlns:rdf="http://www.w3.org/1999/02/22-rdf-syntax-ns#"
   xmlns:svg="http://www.w3.org/2000/svg"
   xmlns="http://www.w3.org/2000/svg"
   xmlns:sodipodi="http://sodipodi.sourceforge.net/DTD/sodipodi-0.dtd"
   xmlns:inkscape="http://www.inkscape.org/namespaces/inkscape"
   width="24"
   height="24"
   viewBox="0 0 24 24"
   fill="none"
   version="1.1"
   id="svg1416"
   sodipodi:docname="tm_cloud_folder.svg"
   inkscape:version="1.0.2 (e86c8708, 2021-01-15)">
  <metadata
     id="metadata1422">
    <rdf:RDF>
      <cc:Work
         rdf:about="">
        <dc:format>image/svg+xml</dc:format>
        <dc:type
           rdf:resource="http://purl.org/dc/dcmitype/StillImage" />
        <dc:title></dc:title>
      </cc:Work>
    </rdf:RDF>
  </metadata>
  <defs
     id="defs1420" />
  <sodipodi:namedview
     pagecolor="#ffffff"
     bordercolor="#666666"
     borderopacity="1"
     objecttolerance="10"
     gridtolerance="10"
     guidetolerance="10"
     inkscape:pageopacity="0"
     inkscape:pageshadow="2"
     inkscape:window-width="1238"
     inkscape:window-height="812"
     id="namedview1418"
     showgrid="false"
     inkscape:zoom="13.9375"
     inkscape:cx="12"
     inkscape:cy="6.9319058"
     inkscape:window-x="0"
     inkscape:window-y="23"
     inkscape:window-maximized="0"
     inkscape:current-layer="svg1416" />
  <path
     d="m 5.5541276,14.194287 0,-6.9084579 c 0,-0.8740398 0.7085484,-1.5825883 1.5825888,-1.5825883 H 11.88448 l 1.582589,1.5825883 h 4.747763 c 0.874066,0 1.582589,0.7085485 1.582589,1.5825882 v 6.3303537 c 0,0.874064 -0.708523,1.582588 -1.582589,1.582588 l -1.535515,0"
     stroke="#374151"
     stroke-width="1.39013"
     stroke-linecap="round"
     stroke-linejoin="round"
     id="path5003"
     sodipodi:nodetypes="ccsssccssc"
     style="stroke:#4a5568;stroke-width:2;stroke-miterlimit:4;stroke-dasharray:none;stroke-opacity:1" />
  <path
     d="m 3.3430581,17.964126 c 0,1.565192 1.2688607,2.834079 2.8340814,2.834079 h 6.3766825 c 1.956507,0 3.5426,-1.586092 3.5426,-3.5426 0,-1.956508 -1.586093,-3.542601 -3.5426,-3.542601 -0.02367,0 -0.04718,2.33e-4 -0.07072,6.95e-4 -0.327974,-1.617361 -1.757768,-2.834776 -3.4718912,-2.834776 -1.9565216,0 -3.5426012,1.586078 -3.5426012,3.542602 0,0.26697 0.029537,0.527068 0.085518,0.777246 -1.2655159,0.283833 -2.2110863,1.414135 -2.2110863,2.765355 z"
     stroke="#374151"
     stroke-width="1.41704"
     stroke-linecap="round"
     stroke-linejoin="round"
     id="path1414"
     style="mix-blend-mode:luminosity;fill:none;fill-opacity:1;stroke:#4a5568;stroke-width:2;stroke-miterlimit:4;stroke-dasharray:none;stroke-opacity:1" />
  <path
     d="m 42.029156,6.7780284 h -8.206279 c -0.90644,0 -1.641255,-0.73479 -1.641255,-1.641255 V -6.3520173 c 0,-0.9064408 0.734815,-1.6412556 1.641255,-1.6412556 h 4.583864 c 0.217631,0 0.426397,0.086461 0.580265,0.2403537 l 4.443043,4.4430596 c 0.153867,0.153892 0.240362,0.362627 0.240362,0.580266 v 7.866367 c 0,0.906465 -0.734791,1.641255 -1.641255,1.641255 z"
     stroke="#4a5568"
     stroke-width="1.64126"
     stroke-linecap="round"
     stroke-linejoin="round"
     id="path843-0"
     sodipodi:nodetypes="ssssssccsss"
     style="stroke-width:2;stroke-miterlimit:4;stroke-dasharray:none" />
  <path
     d="m 26.356511,7.4551584 c 0,1.565192 1.268861,2.8340786 2.834081,2.8340786 h 6.376682 c 1.956508,0 3.5426,-1.5860916 3.5426,-3.5425996 0,-1.956508 -1.586093,-3.542601 -3.5426,-3.542601 -0.02367,0 -0.04718,2.33e-4 -0.07072,6.95e-4 -0.327974,-1.617361 -1.757768,-2.834776 -3.47189,-2.834776 -1.956522,0 -3.542602,1.586078 -3.542602,3.542602 0,0.26697 0.02954,0.527068 0.08552,0.777246 -1.265515,0.283833 -2.211086,1.414135 -2.211086,2.765355 z"
     stroke="#374151"
     stroke-width="1.41704"
     stroke-linecap="round"
     stroke-linejoin="round"
     id="path1414-3"
     style="mix-blend-mode:luminosity;fill:#ffffff;fill-opacity:1;stroke:#4a5568;stroke-width:2;stroke-miterlimit:4;stroke-dasharray:none;stroke-opacity:1" />
  <path
     d="m 17.990461,-5.6578787 v -7.9129423 c 0,-0.874039 0.708548,-1.582588 1.582589,-1.582588 h 4.747763 l 1.582589,1.582588 h 4.747763 c 0.874066,0 1.582589,0.708549 1.582589,1.582589 v 6.3303533 c 0,0.8740641 -0.708523,1.5825881 -1.582589,1.5825881 H 19.57305 c -0.874041,0 -1.582589,-0.708524 -1.582589,-1.5825881 z"
     stroke="#374151"
     stroke-width="1.39013"
     stroke-linecap="round"
     stroke-linejoin="round"
     id="path5003-8"
     sodipodi:nodetypes="scsssccssss"
     style="stroke:#4a5568;stroke-width:2;stroke-miterlimit:4;stroke-dasharray:none;stroke-opacity:1" />
</svg>
