<?xml version="1.0" encoding="UTF-8" standalone="no"?>
<svg
   xmlns:dc="http://purl.org/dc/elements/1.1/"
   xmlns:cc="http://creativecommons.org/ns#"
   xmlns:rdf="http://www.w3.org/1999/02/22-rdf-syntax-ns#"
   xmlns:svg="http://www.w3.org/2000/svg"
   xmlns="http://www.w3.org/2000/svg"
   xmlns:sodipodi="http://sodipodi.sourceforge.net/DTD/sodipodi-0.dtd"
   xmlns:inkscape="http://www.inkscape.org/namespaces/inkscape"
   width="24"
   height="24"
   viewBox="0 0 24 24"
   fill="none"
   version="1.1"
   id="svg1987"
   sodipodi:docname="tm_print.svg"
   inkscape:export-filename="/Users/mgubi/t/devel/qt6/TeXmacs/misc/pixmaps/modern/24x24/main/tm_print_x4.png"
   inkscape:export-xdpi="384"
   inkscape:export-ydpi="384"
   inkscape:version="1.0.2 (e86c8708, 2021-01-15)">
  <metadata
     id="metadata1993">
    <rdf:RDF>
      <cc:Work
         rdf:about="">
        <dc:format>image/svg+xml</dc:format>
        <dc:type
           rdf:resource="http://purl.org/dc/dcmitype/StillImage" />
        <dc:title></dc:title>
      </cc:Work>
    </rdf:RDF>
  </metadata>
  <defs
     id="defs1991" />
  <sodipodi:namedview
     pagecolor="#ffffff"
     bordercolor="#666666"
     borderopacity="1"
     objecttolerance="10"
     gridtolerance="10"
     guidetolerance="10"
     inkscape:pageopacity="0"
     inkscape:pageshadow="2"
     inkscape:window-width="1430"
     inkscape:window-height="842"
     id="namedview1989"
     showgrid="false"
     inkscape:zoom="27.875"
     inkscape:cx="18.943498"
     inkscape:cy="12"
     inkscape:window-x="0"
     inkscape:window-y="23"
     inkscape:window-maximized="0"
     inkscape:current-layer="svg1987" />
  <path
     d="M17 17H19C20.1046 17 21 16.1046 21 15V11C21 9.89543 20.1046 9 19 9H5C3.89543 9 3 9.89543 3 11V15C3 16.1046 3.89543 17 5 17H7M9 21H15C16.1046 21 17 20.1046 17 19V15C17 13.8954 16.1046 13 15 13H9C7.89543 13 7 13.8954 7 15V19C7 20.1046 7.89543 21 9 21ZM17 9V5C17 3.89543 16.1046 3 15 3H9C7.89543 3 7 3.89543 7 5V9H17Z"
     stroke="#4A5568"
     stroke-width="2"
     stroke-linecap="round"
     stroke-linejoin="round"
     id="path1985" />
</svg>
