<?xml version="1.0" encoding="UTF-8" standalone="no"?>
<svg
   xmlns:dc="http://purl.org/dc/elements/1.1/"
   xmlns:cc="http://creativecommons.org/ns#"
   xmlns:rdf="http://www.w3.org/1999/02/22-rdf-syntax-ns#"
   xmlns:svg="http://www.w3.org/2000/svg"
   xmlns="http://www.w3.org/2000/svg"
   xmlns:sodipodi="http://sodipodi.sourceforge.net/DTD/sodipodi-0.dtd"
   xmlns:inkscape="http://www.inkscape.org/namespaces/inkscape"
   width="24"
   height="24"
   viewBox="0 0 24 24"
   fill="none"
   version="1.1"
   id="svg3173"
   sodipodi:docname="tm_rarrow_bar.svg"
   inkscape:version="1.0.2 (e86c8708, 2021-01-15)">
  <metadata
     id="metadata3179">
    <rdf:RDF>
      <cc:Work
         rdf:about="">
        <dc:format>image/svg+xml</dc:format>
        <dc:type
           rdf:resource="http://purl.org/dc/dcmitype/StillImage" />
        <dc:title></dc:title>
      </cc:Work>
    </rdf:RDF>
  </metadata>
  <defs
     id="defs3177" />
  <sodipodi:namedview
     pagecolor="#ffffff"
     bordercolor="#666666"
     borderopacity="1"
     objecttolerance="10"
     gridtolerance="10"
     guidetolerance="10"
     inkscape:pageopacity="0"
     inkscape:pageshadow="2"
     inkscape:window-width="990"
     inkscape:window-height="845"
     id="namedview3175"
     showgrid="false"
     showguides="true"
     inkscape:guide-bbox="true"
     inkscape:zoom="9.8553008"
     inkscape:cx="14.338811"
     inkscape:cy="23.821031"
     inkscape:window-x="0"
     inkscape:window-y="23"
     inkscape:window-maximized="0"
     inkscape:current-layer="svg3173"
     inkscape:document-rotation="0">
    <sodipodi:guide
       position="12.480593,18.013374"
       orientation="0,-1"
       id="guide4342" />
    <sodipodi:guide
       position="14.712894,5.9386537"
       orientation="0,-1"
       id="guide4344" />
  </sodipodi:namedview>
  <path
     id="path3742-7"
     style="fill:#374151;fill-opacity:1;stroke-width:2;stroke-miterlimit:4;stroke-dasharray:none"
     d="m 18.923177,2.9789763 c 1.842506,0 3.334987,1.3035221 3.334987,2.9113741 V 18.107723 c 0,1.607852 -1.492481,2.911374 -3.334987,2.911376 v 0.0019 H 5.0768216 c -1.842561,0 -3.334986,-1.303522 -3.334986,-2.911374 V 5.8903504 c 0,-1.607852 1.492424,-2.9113741 3.334986,-2.9113741 z M 6.8001546,5.986626 C 6.2847276,5.942255 5.7796326,6.4369904 5.7796326,7.1650393 v 9.4234567 c 0,0.97067 0.896638,1.525903 1.521154,0.9435 l 5.1680744,-4.713653 c 0.508227,-0.471201 0.508227,-1.411951 0,-1.883151 L 7.3007866,6.2215384 C 7.1446596,6.0759283 6.9719636,6.0014159 6.8001546,5.986626 Z M 17.473267,6.6258959 h -1.611654 c -0.457594,0 -0.82797,0.513033 -0.82797,1.1456796 v 8.0370875 c 0,0.632645 0.370376,1.143753 0.82797,1.143754 h 1.611654 c 0.457581,0 0.82797,-0.513034 0.82797,-1.14568 V 7.7715755 c 0,-0.6326466 -0.370389,-1.1456796 -0.82797,-1.1456796 z" />
  <path
     d="m 27.602056,-12.242877 c -0.515515,0.477958 -0.515515,1.433873 0,1.911831 l 5.242519,4.7795783 c 0.633472,0.590756 1.542175,0.02868 1.542175,-0.955916 v -9.5591673 c 0,-0.984653 -0.908703,-1.546707 -1.542175,-0.955916 z"
     stroke="#374151"
     stroke-width="2.14597"
     stroke-linecap="round"
     stroke-linejoin="round"
     id="path3169-3"
     style="stroke-width:2.14677;stroke-miterlimit:4;stroke-dasharray:none" />
  <path
     d="m 20.799802,-6.1376717 h 3.361621 c 0.464157,0 0.840406,-0.520181 0.840406,-1.1619 v -8.1511473 c 0,-0.641719 -0.376249,-1.161901 -0.840406,-1.161901 h -3.361624 c -0.464143,0 -0.840405,0.520182 -0.840405,1.161901 v 8.1498343 c 0,0.641719 0.376262,1.161901 0.840405,1.161901 z"
     stroke="#374151"
     stroke-width="1.13943"
     stroke-linecap="round"
     stroke-linejoin="round"
     id="path3742-9"
     sodipodi:nodetypes="cssssssscc"
     style="stroke-width:1.73625;stroke-miterlimit:4;stroke-dasharray:none" />
  <path
     d="m 20.273299,-2.0108247 h 14.04332 c 1.868984,0 3.383995,-1.322023 3.383995,-2.952933 V -17.359253 c 0,-1.630909 -1.515011,-2.952934 -3.383995,-2.952934 H 20.27329 c -1.868928,0 -3.383993,1.322025 -3.383993,2.952934 v 12.3921593 c 0,1.630909 1.515065,2.952935 3.383993,2.952935 z"
     stroke="#374151"
     stroke-width="1.13943"
     stroke-linecap="round"
     stroke-linejoin="round"
     id="path3742-7-0"
     sodipodi:nodetypes="cssssssscc"
     style="stroke-width:2;stroke-miterlimit:4;stroke-dasharray:none" />
</svg>
